<?xml version="1.0" encoding="UTF-8" standalone="no"?>
<!-- Created with Inkscape (http://www.inkscape.org/) -->

<svg
   width="120"
   height="100"
   viewBox="0 0 31.75 26.458333"
   version="1.1"
   id="svg5"
   xmlns="http://www.w3.org/2000/svg"
   xmlns:svg="http://www.w3.org/2000/svg">
  <defs
     id="defs2" />
  <g
     id="layer1">
    <g
       id="g784"
       transform="translate(-1.5209581,1.2674651)">
      <g
         aria-label="A"
         transform="scale(1.0558456,0.9471082)"
         id="text177"
         style="fill:#ffff;font-size:30.5738px;stroke-width:2.54783">
        <path
           id="path652"
           d="m 12.486382,2.5256904 -7.0318713,19.3182306 -1.7170409,-0.5103 0.657627,3.420764 h 3.0007058 l 2.1794395,-6.195553 c 0.9146509,-2.506958 0.066781,-0.139933 0.8956599,-2.537694 L 14.38244,5.1081255 18.278806,16.021138 c 0.584252,1.50889 -0.05457,-0.204675 0.910343,2.537694 l 2.179929,6.195553 h 3.149983 l 1.382833,-3.462059 -1.667168,0.773461 -0.597304,0.277111 L 16.427776,2.5256904 12.846508,0.1058653 Z" />
      </g>
      <path
         style="fill:#ffffff;stroke-width:0.264583"
         d="M 6.4349998,22.858393 C 6.9017123,23.371019 7.267433,23.470892 7.884305,23.434305 15.198547,22.176006 20.225993,18.51583 24.716122,13.619983 27.679949,10.359329 30.13554,6.5954374 30.095514,3.2571266 29.711578,1.2270902 27.140713,1.1766801 25.669285,1.5557144 c -1.076914,0.134807 -5.784493,2.5492184 -7.444347,4.3366861 -0.676501,0.9662512 -0.907054,1.6643997 0.288856,0.9668109 2.81152,-3.2155223 10.591709,-4.466962 8.055649,0.879211 -1.895363,3.8463886 -7.87753,8.8313926 -10.163729,10.2230056 -1.494851,0.895457 -3.129534,1.58461 -4.808571,2.050715 -1.39885,0.388324 -2.9140466,0.667393 -4.3135715,0.601071 -0.7991662,-0.03787 -1.3871873,1.653577 -0.8485717,2.245179 z"
         id="path497" />
      <ellipse
         style="fill:#ffffff;stroke-width:0.146036"
         id="path772"
         cx="14.940301"
         cy="14.340433"
         rx="1.4238534"
         ry="1.405599" />
    </g>
  </g>
</svg>
